<?xml version="1.0" encoding="utf-8"?>
<!-- Generator: Adobe Illustrator 22.0.0, SVG Export Plug-In . SVG Version: 6.00 Build 0)  -->
<svg version="1.1" id="Layer_1" xmlns="http://www.w3.org/2000/svg" xmlns:xlink="http://www.w3.org/1999/xlink" x="0px" y="0px"
	 viewBox="100 50 1100.5 750.4" height="100%" width="100%" xml:space="preserve">
<style type="text/css">
	.st0{fill:none;stroke:#929292;stroke-width:2;stroke-miterlimit:10;}
	.st1{fill:#929292;}
	.st2{font-family:'OpenSans-Semibold';}
	.st3{font-size:2.5em;}
	.st4{fill:#FFFFFF;}
	.selected{fill:#eb00ff !important; font-weight: bold;}

</style>
<path class="st0" d="M271.3,278.1v-80.3l58.8-26.8l58.8,26.8v80.5l-58.8,26.8L271.3,278.1z"/>
<path class="st0" d="M506.3,493.6v-80.5l58.8-26.8l58.8,26.8v80.5l-58.8,26.8L506.3,493.6z"/>
<path class="st0" d="M624.6,493.6v-80.5l58.8-26.8l58.8,26.8v80.5l-58.8,26.8L624.6,493.6z"/>
<path class="st1" d="M684.6,736.3v-80.5l58.8-26.8l58.8,26.8v80.5l-58.8,26.8L684.6,736.3z"/>
<path class="st0" d="M508,709v-80.5l58.8-26.8l58.8,26.8V709l-58.8,26.8L508,709z"/>
<path class="st0" d="M213,601.2v-80.5l58.8-26.8l58.8,26.8v80.5L271.8,628L213,601.2z"/>
<path class="st0" d="M329.6,601.2v-80.5l58.8-26.8l58.8,26.8v80.5l-58.8,26.9L329.6,601.2z"/>
<path class="st0" d="M447.9,601.2v-80.5l58.8-26.8l58.8,26.8v80.5L506.8,628L447.9,601.2z"/>
<path class="st0" d="M566.3,601.2v-80.5l58.8-26.8l58.8,26.8v80.5L625.1,628L566.3,601.2z"/>
<path class="st0" d="M684.6,601.2v-80.5l58.8-26.8l58.8,26.8v80.5L743.4,628L684.6,601.2z"/>
<path class="st0" d="M803.1,601.2v-80.5L862,494l58.8,26.8v80.5L862,628L803.1,601.2z"/>
<path class="st0" d="M153,493.6v-80.5l58.8-26.8l58.8,26.8v80.5l-58.8,26.8L153,493.6z"/>
<path class="st0" d="M271.3,493.6v-80.5l58.8-26.8l58.8,26.8v80.5l-58.8,26.8L271.3,493.6z"/>
<path class="st0" d="M389.6,493.6v-80.5l58.8-26.8l58.8,26.8v80.5l-58.8,26.8L389.6,493.6z"/>
<path class="st0" d="M743.1,493.6v-80.5l58.8-26.8l58.8,26.8v80.5l-58.8,26.8L743.1,493.6z"/>
<polygon class="st0" points="920.3,386.4 861.4,413.2 861.4,493.6 920.3,520.4 978.8,413 "/>
<polygon class="st1" points="979.1,413.2 978.8,413 920.3,520.4 979.1,493.6 "/>
<path class="st0" d="M213,385.9v-80.5l58.8-26.8l58.8,26.8v80.5l-58.8,26.8L213,385.9z"/>
<path class="st0" d="M329.6,385.9v-80.5l58.8-26.8l58.8,26.8v80.5l-58.8,26.8L329.6,385.9z"/>
<path class="st0" d="M447.9,385.9v-80.5l58.8-26.8l58.8,26.8v80.5l-58.8,26.8L447.9,385.9z"/>
<path class="st0" d="M566.3,385.9v-80.5l58.8-26.8l58.8,26.8v80.5l-58.8,26.8L566.3,385.9z"/>
<path class="st0" d="M684.6,385.9v-80.5l58.8-26.8l58.8,26.8v80.5l-58.7,26.8L684.6,385.9z"/>
<path class="st0" d="M803.1,385.9v-80.5l58.8-26.8l58.8,26.8v80.5L862,412.6L803.1,385.9z"/>
<polygon class="st0" points="980.3,278.6 921.5,305.4 921.5,385.9 980,412.5 1038.3,305.1 "/>
<polygon class="st1" points="1039.1,385.9 1039.1,305.4 1038.3,305.1 980,412.5 980.3,412.6 "/>
<path class="st0" d="M624.6,278.1v-80.3l58.8-26.8l58.8,26.8v80.5l-58.8,26.8L624.6,278.1z"/>
<path class="st0" d="M743.1,278.1v-80.3l58.8-26.8l58.8,26.8v80.5l-58.8,26.8L743.1,278.1z"/>
<text transform="matrix(1 0 0 1 302.9809 256.4194)" class="st1 st2 st3">ВЛ</text>
<text transform="matrix(1 0 0 1 248.7803 579.5459)" class="st1 st2 st3">ІФ</text>
<text transform="matrix(1 0 0 1 427.3027 469.9033)" class="st1 st2 st3">—</text>
<text transform="matrix(1 0 0 1 191.7075 470.6777)" class="st1 st2 st3">—</text>
<text transform="matrix(1 0 0 1 604.1694 364.083)" class="st1 st2 st3">—</text>
<text transform="matrix(1 0 0 1 363.0962 364.0537)" class="st1 st2 st3">РВ</text>
<text transform="matrix(1 0 0 1 250.9888 364.0977)" class="st1 st2 st3">—</text>
<text transform="matrix(1 0 0 1 310.0215 471.0645)" class="st1 st2 st3">—</text>
<text transform="matrix(1 0 0 1 771.8643 256.4194)" class="st1 st2 st3">СМ</text>
<text transform="matrix(1 0 0 1 658.1631 256.4194)" class="st1 st2 st3">ЧГ</text>
<text transform="matrix(1 0 0 1 782.8389 469.5166)" class="st1 st2 st3">—</text>
<text transform="matrix(1 0 0 1 890.9688 469.5166)" class="st1 st2 st3">ДО</text>
<text transform="matrix(1 0 0 1 836.4395 579.6006)" class="st1 st2 st3">ЗП</text>
<text transform="matrix(1 0 0 1 718.3896 579.6191)" class="st1 st2 st3">ХР</text>
<text transform="matrix(1 0 0 1 537.1729 689.5742)" class="st1 st2 st3">ОД</text>
<text transform="matrix(1 0 0 1 368.0986 579.6367)" class="st1 st2 st3">—</text>
<text transform="matrix(1 0 0 1 723.4102 714.6094)" class="st4 st2 st3">—</text>
<text transform="matrix(1 0 0 1 476.9741 364.0684)" class="st1 st2 st3">ЖТ</text>
<text transform="matrix(1 0 0 1 714.1704 364.0391)" class="st1 st2 st3">ПЛ</text>
<text transform="matrix(1 0 0 1 841.9561 364.1123)" class="st1 st2 st3">—</text>
<text transform="matrix(1 0 0 1 955.1152 364.127)" class="st1 st2 st3">ЛГ</text>
<text transform="matrix(1 0 0 1 539.6187 471.8379)" class="st1 st2 st3">ЧК</text>
<text transform="matrix(1 0 0 1 660.1953 469.5166)" class="st1 st2 st3">КГ</text>
<text transform="matrix(1 0 0 1 594.0854 579.5645)" class="st1 st2 st3">МК</text>
<text transform="matrix(1 0 0 1 487.0625 579.582)" class="st1 st2 st3">—</text>
</svg>
