<?xml version="1.0" encoding="utf-8"?>
<svg version="1.1" id="Layer_1" xmlns="http://www.w3.org/2000/svg" xmlns:xlink="http://www.w3.org/1999/xlink" x="0px" y="0px"
	 viewBox="0 0 683.5 450.4" height="100%" width="100%">
<style type="text/css">
	.st0{fill:none;stroke:#929292;stroke-width:2;stroke-miterlimit:10;}
	.st1{fill:#929292;}
	.st2{font-family:'OpenSans-Semibold';}
	.st3{font-size:23px;}
	.st4{fill:#FFFFFF;}
	.selected{fill:#eb00ff !important; font-weight: bold; font-size: 2em;}
</style>
	<g transform="translate(-50,-80)">
<path class="st0" d="M150.3,243.1V196l34.5-15.7l34.5,15.7v47.2l-34.5,15.7L150.3,243.1z"/>
<path class="st0" d="M288.1,369.5v-47.2l34.5-15.7l34.5,15.7v47.2l-34.5,15.7L288.1,369.5z"/>
<path class="st0" d="M357.5,369.5v-47.2l34.5-15.7l34.5,15.7v47.2L392,385.2L357.5,369.5z"/>
<path class="st1" d="M392.7,511.8v-47.2l34.5-15.7l34.5,15.7v47.2l-34.5,15.7L392.7,511.8z"/>
<path class="st0" d="M289.1,495.8v-47.2l34.5-15.7l34.5,15.7v47.2l-34.5,15.7L289.1,495.8z"/>
<path class="st0" d="M116.1,432.6v-47.2l34.5-15.7l34.5,15.7v47.2l-34.5,15.7L116.1,432.6z"/>
<path class="st0" d="M184.5,432.6v-47.2l34.5-15.7l34.5,15.7v47.2L219,448.4L184.5,432.6z"/>
<path class="st0" d="M253.9,432.6v-47.2l34.5-15.7l34.5,15.7v47.2l-34.5,15.7L253.9,432.6z"/>
<path class="st0" d="M323.3,432.6v-47.2l34.5-15.7l34.5,15.7v47.2l-34.5,15.7L323.3,432.6z"/>
<path class="st0" d="M392.7,432.6v-47.2l34.5-15.7l34.5,15.7v47.2l-34.5,15.7L392.7,432.6z"/>
<path class="st0" d="M462.2,432.6v-47.2l34.5-15.7l34.5,15.7v47.2l-34.5,15.7L462.2,432.6z"/>
<path class="st0" d="M80.9,369.5v-47.2l34.5-15.7l34.5,15.7v47.2l-34.5,15.7L80.9,369.5z"/>
<path class="st0" d="M150.3,369.5v-47.2l34.5-15.7l34.5,15.7v47.2l-34.5,15.7L150.3,369.5z"/>
<path class="st0" d="M219.7,369.5v-47.2l34.5-15.7l34.5,15.7v47.2l-34.5,15.7L219.7,369.5z"/>
<path class="st0" d="M427,369.5v-47.2l34.5-15.7l34.5,15.7v47.2l-34.5,15.7L427,369.5z"/>
<polygon class="st0" points="530.9,306.6 496.4,322.3 496.4,369.5 530.9,385.2 565.2,322.2 "/>
<polygon class="st1" points="565.4,322.3 565.2,322.2 530.9,385.2 565.4,369.5 "/>
<path class="st0" d="M116.1,306.3v-47.2l34.5-15.7l34.5,15.7v47.2L150.6,322L116.1,306.3z"/>
<path class="st0" d="M184.5,306.3v-47.2l34.5-15.7l34.5,15.7v47.2L219,322L184.5,306.3z"/>
<path class="st0" d="M253.9,306.3v-47.2l34.5-15.7l34.5,15.7v47.2L288.4,322L253.9,306.3z"/>
<path class="st0" d="M323.3,306.3v-47.2l34.5-15.7l34.5,15.7v47.2L357.8,322L323.3,306.3z"/>
<path class="st0" d="M392.7,306.3v-47.2l34.5-15.7l34.5,15.7v47.2L427.3,322L392.7,306.3z"/>
<path class="st0" d="M462.2,306.3v-47.2l34.5-15.7l34.5,15.7v47.2L496.7,322L462.2,306.3z"/>
<polygon class="st0" points="566.1,243.4 531.6,259.1 531.6,306.3 565.9,321.9 600.1,258.9 "/>
<polygon class="st1" points="600.6,306.3 600.6,259.1 600.1,258.9 565.9,321.9 566.1,322 "/>
<path class="st0" d="M357.5,243.1V196l34.5-15.7l34.5,15.7v47.2L392,258.9L357.5,243.1z"/>
<path class="st0" d="M427,243.1V196l34.5-15.7L496,196v47.2l-34.5,15.7L427,243.1z"/>
<text transform="matrix(1 0 0 1 167.2137 230.3791)" class="st1 st2 st3">ВЛ</text>
<text transform="matrix(1 0 0 1 137.2402 419.8792)" class="st1 st2 st3">ІФ</text>
<text transform="matrix(1 0 0 1 234.5276 355.5786)" class="st1 st2 st3">—</text>
<text transform="matrix(1 0 0 1 100.4661 356.0324)" class="st1 st2 st3">—</text>
<text transform="matrix(1 0 0 1 341.1849 293.5194)" class="st1 st2 st3">—</text>
<text transform="matrix(1 0 0 1 204.1453 293.5022)" class="st1 st2 st3">РВ</text>
<text transform="matrix(1 0 0 1 132.2997 293.528)" class="st1 st2 st3">—</text>
<text transform="matrix(1 0 0 1 171.0252 356.2593)" class="st1 st2 st3">—</text>
<text transform="matrix(1 0 0 1 441.2405 230.3791)" class="st1 st2 st3">СМ</text>
<text transform="matrix(1 0 0 1 376.3226 230.3791)" class="st1 st2 st3">ЧГ</text>
<text transform="matrix(1 0 0 1 443.0349 355.3517)" class="st1 st2 st3">—</text>
<text transform="matrix(1 0 0 1 511.7302 355.3517)" class="st1 st2 st3">ДО</text>
<text transform="matrix(1 0 0 1 479.0879 419.9113)" class="st1 st2 st3">ЗП</text>
<text transform="matrix(1 0 0 1 412.659 419.9221)" class="st1 st2 st3">ХР</text>
<text transform="matrix(1 0 0 1 303.0702 484.4067)" class="st1 st2 st3">ОД</text>
<text transform="matrix(1 0 0 1 199.2206 419.9328)" class="st1 st2 st3">—</text>
<text transform="matrix(1 0 0 1 412.8737 499.0882)" class="st4 st2 st3">—</text>
<text transform="matrix(1 0 0 1 268.936 293.5108)" class="st1 st2 st3">ЖТ</text>
<text transform="matrix(1 0 0 1 407.4779 293.4936)" class="st1 st2 st3">ПЛ</text>
<text transform="matrix(1 0 0 1 482.3962 293.5366)" class="st1 st2 st3">—</text>
<text transform="matrix(1 0 0 1 550.6238 293.5452)" class="st1 st2 st3">ЛГ</text>
<text transform="matrix(1 0 0 1 305.0424 356.7132)" class="st1 st2 st3">ЧК</text>
<text transform="matrix(1 0 0 1 380.2413 355.3517)" class="st1 st2 st3">КГ</text>
<text transform="matrix(1 0 0 1 337.6628 419.8899)" class="st1 st2 st3">МК</text>
<text transform="matrix(1 0 0 1 269.5742 419.9006)" class="st1 st2 st3">—</text>
	</g>
</svg>
